<?xml version="1.0" encoding="UTF-8" ?>
<!DOCTYPE svg PUBLIC "-//W3C//DTD SVG 1.1//EN" "http://www.w3.org/Graphics/SVG/1.1/DTD/svg11.dtd">
<svg width="194pt" height="80pt" viewBox="0 0 194 80" version="1.1" xmlns="http://www.w3.org/2000/svg">
<path fill="#fefefe" d=" M 0.00 0.00 L 194.00 0.00 L 194.00 80.00 L 0.00 80.00 L 0.00 0.00 Z" />
<path fill="#2c5447" d=" M 50.78 11.78 C 55.54 10.37 61.03 9.45 65.51 12.20 C 66.41 15.16 65.86 18.42 63.50 20.55 C 59.63 24.18 53.76 25.87 48.61 24.44 C 47.63 23.65 46.36 22.29 47.05 20.93 C 48.23 16.99 52.56 15.12 56.38 14.98 C 53.66 16.56 50.13 17.17 48.42 20.08 C 47.01 22.89 50.79 24.44 53.05 23.99 C 57.57 23.45 62.62 20.58 63.77 15.92 C 64.32 11.83 59.13 10.72 56.05 11.40 C 48.90 12.64 40.43 15.53 37.99 23.18 C 39.71 27.65 45.07 27.50 49.05 27.72 C 53.54 27.86 59.15 28.07 61.80 32.36 C 63.56 36.05 62.10 40.49 59.64 43.50 C 53.49 51.21 43.64 54.96 34.07 55.99 C 29.53 56.28 24.12 55.79 21.12 51.90 C 18.68 49.21 19.04 44.98 20.96 42.10 C 23.68 37.92 28.45 35.65 33.11 34.30 C 37.00 33.15 41.40 32.97 45.06 34.95 C 47.65 36.43 50.41 37.55 53.12 38.79 C 53.49 39.99 53.86 41.18 54.21 42.38 C 52.56 40.40 50.81 38.45 48.46 37.28 C 48.22 40.30 48.26 43.73 45.92 46.00 C 41.97 50.48 33.59 52.63 29.74 46.95 C 30.13 38.79 39.23 36.59 45.86 36.05 C 38.22 32.29 28.56 36.32 24.24 43.25 C 22.44 46.12 22.05 50.81 25.18 52.91 C 28.44 55.32 32.72 55.24 36.55 54.75 C 43.97 53.43 51.43 50.16 56.14 44.07 C 58.22 41.03 59.89 36.18 56.66 33.32 C 50.85 29.47 43.23 32.11 37.09 29.13 C 33.83 27.45 34.25 22.84 36.32 20.38 C 39.90 15.87 45.40 13.43 50.78 11.78 Z" />
<path fill="#2c5447" d=" M 89.53 20.49 C 95.07 15.25 102.19 10.71 110.00 10.43 C 113.12 9.97 115.25 13.03 115.06 15.88 C 115.58 23.86 111.52 31.03 108.16 37.97 C 108.68 38.15 109.73 38.52 110.25 38.70 L 110.58 38.92 C 110.03 40.39 110.62 41.70 111.43 42.90 C 112.26 42.47 113.91 41.62 114.74 41.19 C 114.24 38.42 112.86 35.82 112.90 32.97 C 114.44 30.37 117.51 30.10 120.16 30.79 C 120.15 31.86 120.13 32.93 120.11 34.00 C 118.85 33.03 117.61 32.06 116.35 31.10 C 115.00 33.86 116.44 36.84 118.12 39.08 C 120.28 38.99 121.32 36.86 121.87 35.06 C 124.32 27.85 129.14 21.77 134.25 16.25 C 136.08 14.21 138.57 12.87 141.32 12.56 C 141.74 19.91 135.69 25.28 131.35 30.44 C 128.76 33.74 123.28 36.00 124.14 40.95 C 124.65 41.15 125.69 41.57 126.20 41.77 C 129.00 38.73 130.29 34.38 133.99 32.13 C 135.87 30.48 138.42 30.34 140.73 30.98 C 135.28 31.24 131.75 36.37 130.87 41.32 C 135.44 39.76 136.03 33.92 140.49 32.28 C 139.53 35.29 138.05 38.10 136.99 41.08 C 140.82 38.45 143.07 34.10 146.97 31.60 C 149.36 31.35 148.34 34.19 148.47 35.53 C 150.20 34.16 152.29 30.80 154.63 32.97 C 154.15 36.53 152.21 39.61 150.79 42.84 L 153.51 43.45 C 151.98 43.94 150.43 45.91 148.76 44.73 C 147.00 40.84 151.04 37.45 152.22 33.93 C 148.95 36.97 146.74 41.19 142.85 43.49 L 142.08 42.26 C 143.15 39.12 145.10 36.37 146.31 33.28 C 143.21 36.21 141.06 40.09 137.58 42.62 C 136.10 43.87 134.77 42.52 134.06 41.21 C 132.50 42.13 131.03 43.58 129.06 43.26 C 126.53 43.07 123.86 44.02 121.48 42.87 C 121.26 41.99 120.83 40.24 120.61 39.36 C 117.55 41.72 114.06 44.12 109.97 43.42 C 109.03 42.01 108.07 40.61 107.10 39.23 C 102.35 47.27 95.19 56.08 84.97 56.07 C 82.33 56.41 80.28 54.55 79.44 52.22 C 80.65 53.11 81.75 54.19 83.06 54.96 C 88.03 55.38 92.40 52.02 95.58 48.54 C 101.35 41.42 106.40 33.68 110.39 25.41 C 112.04 21.66 113.67 17.55 112.85 13.37 C 111.57 11.51 109.13 11.16 107.09 11.74 C 100.62 13.39 94.72 17.43 91.07 23.06 C 89.37 25.70 87.63 28.72 88.08 32.00 C 88.61 35.37 92.35 37.27 95.52 36.84 C 97.97 36.45 100.26 35.44 102.69 34.94 C 97.81 38.80 89.06 39.44 85.51 33.51 C 83.25 28.90 86.05 23.63 89.53 20.49 Z" />
<path fill="#fefefe" d=" M 132.73 20.77 C 134.80 17.86 137.06 14.90 140.34 13.28 C 139.86 18.16 136.63 22.03 133.76 25.76 C 131.28 29.05 128.27 31.89 125.23 34.65 C 127.10 29.71 129.78 25.13 132.73 20.77 Z" />
<path fill="#2c5447" d=" M 165.01 31.52 C 167.60 28.22 168.02 22.31 172.79 21.49 C 170.71 27.93 165.80 33.24 164.55 39.97 C 163.83 42.29 165.94 43.42 167.65 44.31 C 169.51 42.90 171.18 41.26 173.09 39.92 C 171.37 42.73 168.88 46.23 165.08 45.54 C 162.08 45.67 162.13 42.09 161.62 40.00 C 159.79 41.83 157.77 43.89 154.92 43.35 C 153.20 41.69 154.03 39.11 155.05 37.32 C 156.95 33.78 160.64 30.13 165.01 31.52 Z" />
<path fill="#2c5447" d=" M 63.93 43.31 C 61.93 36.78 67.51 29.06 74.50 29.73 C 74.33 33.57 71.16 35.55 67.95 36.76 C 65.75 37.58 67.00 40.14 67.45 41.68 C 72.05 41.15 72.59 36.12 75.47 33.45 C 77.04 31.75 79.18 30.81 81.33 30.06 C 81.74 31.18 82.16 32.31 82.59 33.43 C 81.78 36.17 79.83 39.31 81.87 41.98 C 83.95 40.53 85.50 38.51 87.32 36.77 C 85.86 40.14 83.50 43.97 79.26 43.55 C 78.79 42.70 78.32 41.85 77.85 40.99 C 75.93 42.70 73.09 44.75 71.01 42.06 C 68.77 43.01 66.38 43.58 63.93 43.31 Z" />
<path fill="#fefefe" d=" M 68.33 34.99 C 67.51 33.55 69.50 31.18 71.03 32.00 C 71.86 33.42 69.80 35.70 68.33 34.99 Z" />
<path fill="#fefefe" d=" M 79.69 31.38 C 80.22 31.83 80.74 32.30 81.26 32.77 C 79.22 35.59 77.87 38.88 75.48 41.47 C 73.88 37.44 76.91 33.91 79.69 31.38 Z" />
<path fill="#fefefe" d=" M 157.41 41.99 C 156.11 37.52 159.91 33.31 163.87 31.81 C 163.47 36.01 161.04 39.85 157.41 41.99 Z" />
<path fill="#fefefe" d=" M 32.62 44.07 C 34.93 38.57 41.67 36.93 47.11 37.31 C 49.26 44.47 40.84 50.93 34.26 48.73 C 32.93 47.60 31.53 45.86 32.62 44.07 Z" />
</svg>
